<svg xmlns="http://www.w3.org/2000/svg" width="46.739" height="52.261" viewBox="0 0 46.739 52.261">
  <g id="Grupo_53" data-name="Grupo 53" transform="translate(-1493.221 -3161.666)">
    <g id="Grupo_52" data-name="Grupo 52" transform="translate(1493.529 3161.666)">
      <path id="União_2" data-name="União 2" d="M12.109,52.242a1.477,1.477,0,0,0,1.118-1.587c-.013-1.383.045-11.327.045-11.327a5.594,5.594,0,0,0,.559-1.786,6.241,6.241,0,0,0-.071-1.605C5.71,33.4,0,27.037,0,19.584a14.679,14.679,0,0,1,1.485-6.412L4.285,0,16.359,2.566a26.491,26.491,0,0,1,10.418.025L38.968,0,42,14.245a14.566,14.566,0,0,1,1.017,5.339c0,7.65-6.016,14.155-14.4,16.546a6.751,6.751,0,0,1,.614.977,4.142,4.142,0,0,1,.6,2.221c0,2.922.078,9.94.059,11.19a2.016,2.016,0,0,0,1.323,1.743Z" transform="translate(3.419 0)" fill="#64734c"/>
      <path id="Caminho_14" data-name="Caminho 14" d="M-.792,1.747A8.03,8.03,0,0,1,4.246,3.111C6.73,4.793,5.841,6.56,8.018,8.155c3.531,2.587,9.546,0,9.546,0" transform="translate(0.792 32.376)" fill="none" stroke="#64734c" stroke-width="5"/>
    </g>
  </g>
</svg>
