<svg id="Grupo_2" data-name="Grupo 2" xmlns="http://www.w3.org/2000/svg" width="41.71" height="41.71" viewBox="0 0 41.71 41.71">
  <g id="Grupo_1" data-name="Grupo 1" transform="translate(0 0)">
    <path id="Caminho_1" data-name="Caminho 1" d="M446.9,309.123c0-6.444,1.524-12.1,3.814-15.267,2.29,3.171,3.814,8.824,3.814,15.267s-1.525,12.1-3.814,15.267C448.422,321.219,446.9,315.567,446.9,309.123Z" transform="translate(-429.858 -282.68)" fill="#adcc7a"/>
    <path id="Caminho_2" data-name="Caminho 2" d="M161.449,131.707h0a20.854,20.854,0,1,1,40.635,0,20.513,20.513,0,0,0-2.687-6.381,20.882,20.882,0,0,0-10.584-8.44,8.4,8.4,0,0,0-4.139-.732,4.955,4.955,0,0,0-2.9,1.41,5,5,0,0,0-2.916-1.409,8.372,8.372,0,0,0-4.136.732,20.884,20.884,0,0,0-10.584,8.439A20.507,20.507,0,0,0,161.449,131.707Z" transform="translate(-160.912 -106.301)" fill="#adcc7a"/>
  </g>
</svg>
